<?xml version="1.0" standalone="no"?>
<!DOCTYPE svg PUBLIC "-//W3C//DTD SVG 20010904//EN"
 "http://www.w3.org/TR/2001/REC-SVG-20010904/DTD/svg10.dtd">
<svg version="1.0" xmlns="http://www.w3.org/2000/svg"
 width="2000.000000pt" height="2000.000000pt" viewBox="0 0 2000.000000 2000.000000"
 preserveAspectRatio="xMidYMid meet">
<metadata>
Created by potrace 1.11, written by Peter Selinger 2001-2013
</metadata>
<g transform="translate(0.000000,2000.000000) scale(0.100000,-0.100000)"
fill="#000000" stroke="none">
<path d="M9508 16845 c-2 -2 -43 -6 -92 -9 -49 -4 -92 -9 -95 -11 -3 -1 -30
-6 -58 -10 -29 -3 -66 -10 -83 -15 -16 -5 -30 -7 -30 -5 0 3 -11 0 -26 -5 -14
-6 -37 -12 -52 -15 -177 -32 -518 -180 -724 -314 -86 -56 -240 -173 -284 -215
-6 -6 -38 -37 -71 -68 -275 -260 -491 -599 -617 -968 -32 -93 -83 -298 -91
-365 -4 -27 -8 -57 -10 -65 -2 -8 -7 -49 -11 -90 -4 -41 -8 -86 -10 -100 -1
-14 -2 -437 -3 -942 l-1 -916 -1267 -1 c-698 0 -1295 -2 -1328 -5 -33 -3 -98
-8 -145 -11 -80 -5 -107 -8 -197 -20 -21 -2 -58 -7 -83 -10 -390 -47 -880
-187 -1270 -363 -19 -9 -37 -17 -40 -17 -3 -1 -30 -14 -60 -30 -30 -15 -86
-44 -125 -64 -93 -47 -414 -237 -460 -273 -5 -5 -75 -56 -155 -116 -761 -564
-1353 -1333 -1655 -2147 -90 -243 -183 -572 -210 -745 -8 -49 -12 -72 -20
-110 -12 -61 -30 -189 -40 -290 -4 -36 -9 -78 -11 -95 -24 -197 -24 -809 1
-1000 2 -16 7 -57 10 -90 3 -33 8 -74 11 -91 3 -17 6 -46 9 -65 5 -45 20 -141
30 -189 3 -14 8 -38 10 -55 3 -16 8 -37 10 -45 4 -16 11 -52 21 -110 3 -19 8
-38 11 -42 2 -5 6 -16 8 -25 11 -55 26 -110 63 -238 141 -476 414 -1012 716
-1405 27 -36 63 -83 80 -105 84 -108 227 -267 386 -425 184 -184 221 -219 335
-313 39 -31 77 -63 85 -70 33 -29 220 -167 310 -228 242 -165 492 -299 815
-438 163 -71 475 -170 675 -216 157 -36 385 -77 500 -91 19 -2 53 -6 75 -9
282 -35 821 -40 1075 -10 14 1 56 6 95 10 38 4 72 8 75 10 3 2 30 6 60 9 64 8
93 12 135 21 17 3 75 15 130 27 722 148 1470 512 2075 1012 125 103 139 117
310 286 181 180 218 222 349 390 188 241 296 411 461 729 8 15 34 71 94 203
14 31 26 60 26 65 0 4 7 21 15 37 18 35 137 384 160 471 60 222 110 459 146
685 5 36 12 76 14 90 6 41 14 102 20 155 3 28 8 61 10 75 4 29 16 137 21 195
1 22 6 76 9 120 4 44 9 107 12 140 3 33 6 283 8 555 4 627 8 682 63 900 137
539 555 934 1077 1017 63 10 314 10 380 1 203 -30 366 -94 540 -212 33 -23 65
-45 71 -51 181 -158 273 -274 368 -462 58 -116 117 -307 146 -473 9 -51 13
-77 25 -170 15 -119 18 -520 19 -2950 l1 -2695 100 0 c122 1 227 12 351 36 28
5 62 12 77 14 37 7 259 72 293 86 16 7 31 13 34 14 11 4 67 26 105 42 62 26
244 121 308 162 186 115 436 332 574 496 287 343 481 775 539 1200 3 22 7 51
9 65 15 87 18 408 20 1850 1 888 5 1624 7 1635 3 11 9 49 13 85 10 98 11 106
38 230 127 578 461 951 962 1074 97 24 132 27 295 31 308 7 530 -55 767 -214
95 -64 233 -193 300 -282 43 -56 143 -218 143 -231 0 -4 11 -32 25 -62 47
-102 98 -289 110 -406 3 -25 9 -79 14 -120 4 -41 9 -1297 9 -2790 1 -1493 1
-2762 2 -2819 l0 -103 133 6 c72 3 157 10 187 15 30 6 75 13 100 16 49 7 157
31 205 45 111 33 291 98 353 126 41 19 75 34 77 34 9 0 235 131 275 159 25 17
56 39 70 48 14 10 59 44 100 77 456 366 763 876 864 1436 24 133 25 141 33
220 10 95 10 3644 0 3840 -4 80 -9 163 -11 185 -3 22 -7 72 -10 112 -9 119
-28 274 -47 393 -9 56 -16 95 -43 235 -17 86 -89 340 -115 400 -5 11 -23 56
-41 100 -54 130 -154 316 -234 437 -65 98 -180 250 -226 299 -185 196 -269
274 -435 404 -99 77 -324 229 -410 276 -16 9 -46 26 -65 37 -182 110 -624 297
-769 327 -9 2 -50 13 -91 24 -89 25 -210 50 -265 57 -22 3 -47 7 -55 9 -32 9
-260 35 -360 41 -182 11 -534 5 -630 -10 -14 -3 -50 -7 -80 -10 -251 -27 -679
-134 -885 -221 -307 -129 -437 -195 -630 -322 -299 -197 -598 -471 -812 -745
-37 -48 -70 -87 -74 -88 -3 0 -37 39 -76 88 -177 218 -398 436 -630 623 -171
137 -421 286 -663 392 -288 127 -713 240 -1020 273 -36 3 -73 8 -82 9 -111 21
-641 21 -768 1 -14 -3 -50 -7 -80 -10 -30 -4 -66 -8 -80 -11 -14 -2 -43 -6
-65 -10 -62 -9 -287 -56 -312 -66 -13 -5 -23 -7 -23 -4 0 2 -19 -3 -42 -11
-24 -9 -52 -17 -62 -20 -11 -2 -56 -16 -100 -31 -45 -15 -83 -28 -86 -28 -51
-8 -479 -205 -610 -282 -95 -55 -328 -213 -404 -273 -374 -296 -645 -620 -841
-1005 -96 -190 -196 -466 -229 -635 -3 -14 -7 -36 -10 -50 -21 -95 -27 -128
-50 -285 -17 -110 -22 -157 -31 -255 -4 -36 -8 -83 -11 -105 -6 -49 -13 -460
-18 -1160 -3 -291 -7 -561 -10 -600 -3 -38 -8 -108 -11 -155 -3 -47 -8 -96
-10 -110 -2 -14 -6 -52 -10 -85 -31 -296 -96 -527 -215 -770 -110 -225 -220
-377 -409 -566 -136 -136 -232 -214 -396 -321 -248 -163 -583 -297 -841 -338
-38 -6 -80 -13 -94 -15 -95 -18 -360 -23 -515 -11 -86 6 -113 10 -180 21 -16
3 -48 8 -70 11 -22 3 -47 8 -55 11 -8 3 -28 7 -45 10 -68 11 -288 80 -360 113
-11 5 -63 29 -115 53 -95 43 -278 152 -355 211 -170 130 -357 315 -475 471
-34 44 -67 88 -75 98 -8 9 -15 19 -15 21 0 2 -22 37 -50 79 -27 42 -50 78 -50
80 0 3 -15 31 -33 64 -51 90 -155 339 -172 413 -2 8 -9 31 -15 50 -18 59 -58
242 -65 299 -4 30 -9 63 -11 75 -24 125 -24 607 1 735 2 13 7 49 11 80 3 31 8
59 10 62 2 3 6 21 9 40 3 19 15 70 27 114 11 44 21 85 22 90 1 6 13 42 26 80
13 39 25 72 25 75 2 6 7 18 43 105 212 515 713 997 1302 1252 84 36 258 99
300 108 8 2 42 10 75 18 63 16 251 52 320 61 101 13 378 18 1280 19 l969 2 14
60 c174 756 524 1331 1077 1770 83 65 346 245 360 245 3 0 23 11 44 25 87 55
349 180 518 248 108 43 456 160 576 193 l57 15 0 1939 0 1938 -75 -1 c-41 0
-76 -1 -77 -2z"/>
</g>
</svg>
